Coordinates
version=1
nRows=19
nColumns=36
inDegrees=yes

Units are S.I. units (second, meters, Newtons, ...)
If the header above contains a line with 'inDegrees', this indicates whether rotational values are in degrees (yes) or radians (no).

endheader
time	pelvis_tilt	pelvis_list	pelvis_rotation	pelvis_tx	pelvis_ty	pelvis_tz	hip_flexion_r	hip_adduction_r	hip_rotation_r	knee_angle_r	knee_angle_r_beta	ankle_angle_r	subtalar_angle_r	mtp_angle_r	hip_flexion_l	hip_adduction_l	hip_rotation_l	knee_angle_l	knee_angle_l_beta	ankle_angle_l	subtalar_angle_l	mtp_angle_l	lumbar_extension	lumbar_bending	lumbar_rotation	arm_flex_r	arm_add_r	arm_rot_r	elbow_flex_r	pro_sup_r	arm_flex_l	arm_add_l	arm_rot_l	elbow_flex_l	pro_sup_l
      8.16666670	     12.09802962	     -2.33609431	     -2.48782758	     -0.12128094	      0.75971611	      0.22723269	     21.63724644	     15.95893813	      2.25888257	     67.99592340	      1.18675274	     36.86784789	    -15.94778805	     -7.49999987	     33.55652592	     -7.51104054	     -6.51723190	      0.29221283	      0.00510008	     -7.16030765	      9.28593055	     -7.49999987	    -22.69567599	      3.42678539	     -2.00207060	     37.97302185	      5.62237479	     61.94912502	    123.62958287	     91.54147870	     40.87376535	     14.55239381	     72.34212977	    124.28682918	     72.62758570
      8.18333330	     12.49150034	     -2.35490913	     -2.28301089	     -0.12064700	      0.75552018	      0.22725209	     21.83650497	     16.05467641	      1.76194966	     69.48383566	      1.21272171	     36.99199919	    -16.01396330	     -7.49999987	     33.34526480	     -7.45142490	     -6.65250533	      0.28813087	      0.00502883	     -6.89143109	      9.87404579	     -7.49999987	    -23.20043665	      3.44816160	     -1.68461181	     38.20242212	      5.38333310	     60.87987575	    123.40434532	     94.04210880	     40.99577183	     14.44271762	     72.23617036	    124.13634379	     73.15876249
      8.20000000	     12.48230699	     -2.47293247	     -2.32149660	     -0.12272588	      0.74490067	      0.22784828	     22.68965349	     16.34964137	      1.41999134	     71.24037013	      1.24337902	     37.47575919	    -16.39625960	     -7.49999987	     33.71840724	     -7.57487567	     -6.39968888	      0.29621827	      0.00516998	     -6.67555157	      9.33226255	     -7.49999987	    -23.29650187	      3.60765240	     -1.84361187	     38.30849595	      5.45454695	     60.14590218	    123.17379033	     92.02884505	     41.08958408	     14.36783447	     71.80011416	    124.15803963	     72.40705787
      8.21666670	     12.77258333	     -2.67200173	     -2.35935729	     -0.12405067	      0.74078968	      0.22871245	     23.23882964	     16.80084664	      1.18947822	     72.65551695	      1.26807799	     38.12750278	    -16.49513067	     -7.49999987	     33.71820286	     -7.82819164	     -6.36271409	      0.30836687	      0.00538202	     -6.50687861	      8.96746003	     -7.49999987	    -23.96200711	      3.76904994	     -1.70728308	     38.43917925	      5.46876275	     58.98916079	    122.88493305	     89.41872965	     41.59924222	     14.16498850	     71.38921139	    124.24633004	     71.40754916
      8.23333330	     13.12991105	     -3.11423211	     -2.66867634	     -0.12789341	      0.73871231	      0.23071585	     23.22688716	     17.61091168	      1.08604633	     73.40745464	      1.28120178	     38.00169050	    -16.43802082	     -7.49999987	     33.49883188	     -8.50666636	     -7.01316620	      0.30332146	      0.00529396	     -6.30976636	      9.44979536	     -7.49999987	    -24.77991716	      3.89920480	     -0.88500713	     38.47650927	      5.39579907	     57.87797421	    122.95377850	     94.48878771	     41.88798317	     14.30242131	     71.13559118	    123.75138817	     73.08586641
      8.25000000	     13.20844916	     -3.56648242	     -2.91695575	     -0.12935952	      0.73313662	      0.23172742	     23.76852333	     18.31912455	      0.76384212	     74.41417710	      1.29877240	     37.76344107	    -16.68704975	     -7.49999987	     33.62846825	     -9.12536962	     -6.93746818	      0.30029807	      0.00524119	     -6.65689198	      9.10859026	     -7.49999987	    -25.33752476	      4.15854288	     -0.40373385	     38.80641216	      5.36116822	     57.46372319	    122.88619101	     92.40959597	     41.91114049	     14.21241160	     70.71271732	    123.83367184	     72.45849362
      8.26666670	     13.51460705	     -3.93263639	     -3.32274293	     -0.13071242	      0.72851487	      0.23196191	     24.36351980	     18.95124223	      0.64928675	     75.65936538	      1.32050504	     37.55694601	    -16.89006405	     -7.49999987	     33.40225165	     -9.68080992	     -7.44891991	      0.31434419	      0.00548634	     -6.76234735	      9.45457028	     -7.49999987	    -26.14895885	      4.25645269	      0.10511901	     39.06890988	      5.34852674	     56.50551354	    122.90212225	     92.60111677	     42.45250009	     14.16744190	     70.18987935	    123.56027350	     72.76391723
      8.28333330	     13.72089577	     -4.34694753	     -3.63447183	     -0.13312320	      0.72148376	      0.23299408	     25.21381995	     19.58036668	      0.35579055	     77.19263711	      1.34726568	     37.71598896	    -17.26875636	     -7.49999987	     33.30085316	    -10.21739107	     -7.24496343	      0.32731989	      0.00571281	     -6.68949551	      9.34953330	     -7.49999987	    -26.79139748	      4.57748215	      0.34503143	     39.59542400	      5.51181283	     55.59415079	    122.78685241	     91.67777757	     42.98406718	     14.03469116	     69.46648232	    123.77271183	     72.50263643
      8.30000000	     13.80308217	     -4.62742507	     -3.71845203	     -0.13183796	      0.71758388	      0.23316538	     25.79959582	     20.04585753	      0.30615910	     77.89221401	      1.35947560	     38.28537112	    -17.68533145	     -7.49999987	     33.17981653	    -10.50754923	     -7.25749333	      0.31736380	      0.00553904	     -6.57505075	      9.57574663	     -7.49999987	    -27.14503769	      4.83842432	      0.36340185	     39.86552624	      5.70518768	     55.13555151	    122.78459888	     90.86269959	     43.38584047	     13.96050849	     68.96091518	    123.85833978	     72.29898947
      8.31666670	     13.81067200	     -4.84693836	     -3.81247744	     -0.13356866	      0.71267741	      0.23347392	     26.28154569	     20.29962875	     -0.08744112	     78.80874122	      1.37547201	     38.07793548	    -17.62831511	     -7.49999987	     33.07636775	    -10.77015939	     -7.16168731	      0.32652081	      0.00569886	     -6.82695747	      9.44227586	     -7.49999987	    -27.40018486	      4.97449716	      0.30716076	     40.05813293	      5.86603570	     55.07899147	    122.78288712	     89.70805081	     43.76545891	     13.82814441	     68.38849746	    123.80114437	     72.00975675
      8.33333330	     13.24762930	     -5.11619385	     -3.67696893	     -0.13306336	      0.70967227	      0.23402996	     27.03621005	     20.60247561	     -0.43108194	     79.32895417	      1.38455144	     38.37500435	    -17.56281708	     -7.49999987	     33.52383184	    -10.95372746	     -6.39734448	      0.34230027	      0.00597427	     -6.53687559	      9.37149821	     -7.49999987	    -27.01681494	      5.28498927	      0.35600135	     40.41311255	      5.89036270	     54.73068950	    122.01181098	     88.39485361	     43.67744576	     13.97137222	     68.32897037	    123.19288526	     71.57781000
      8.35000000	     13.60242847	     -5.10393739	     -3.81060456	     -0.13665159	      0.70623223	      0.23474815	     26.98938313	     20.55039005	     -0.67430031	     80.12361537	      1.39842090	     38.61976479	    -16.89319451	     -7.49999987	     32.84646505	    -10.99865152	     -7.40076190	      0.36355095	      0.00634516	     -6.40846593	     10.20083087	     -7.49999987	    -28.18654355	      5.10270693	      0.70794177	     40.67788677	      5.74779170	     53.72606069	    122.34295387	     94.76976615	     44.05105031	     14.18905028	     68.38541391	    123.82354610	     74.62797354
      8.36666670	     13.63981697	     -5.19023658	     -3.95625091	     -0.13697594	      0.70454811	      0.23530235	     27.18345089	     20.54343454	     -1.04143466	     80.63261203	      1.40730456	     38.83803398	    -16.43450045	     -7.49999987	     32.76734225	    -11.13152783	     -7.24801511	      0.37572695	      0.00655767	     -6.43948895	      9.98801674	     -7.49999987	    -28.63078952	      5.06568670	      0.70561300	     41.23289600	      5.76726226	     52.85004445	    121.57058259	     92.32500513	     44.53316120	     14.12758736	     68.14568878	    123.78069216	     73.65250997
      8.38333330	     13.43123085	     -5.39024255	     -4.03429893	     -0.13811004	      0.70234372	      0.23505341	     27.68392306	     20.54923937	     -1.49801059	     80.95884589	      1.41299842	     39.02307153	    -16.12565114	     -7.49999987	     33.07498279	    -11.32563289	     -6.88179076	      0.35682874	      0.00622784	     -6.19672365	      9.73690743	     -7.49999987	    -28.57290351	      5.26675638	      0.73419766	     41.53721734	      5.78413663	     52.12708084	    120.91268374	     90.46447871	     44.64246110	     14.14421389	     67.82258173	    123.80044976	     72.93341783
      8.40000000	     13.52748690	     -5.66576047	     -4.36466346	     -0.14278948	      0.70186496	      0.23500017	     28.05357055	     20.60102402	     -1.83508724	     81.44802189	      1.42153615	     38.31576556	    -15.61594489	     -7.49999987	     33.21211985	    -11.71876452	     -7.28618555	      0.33581161	      0.00586102	     -6.17121045	     10.63891197	     -7.49999987	    -29.10432786	      5.49101042	      1.01343997	     42.14884111	      5.86018429	     50.90876524	    120.06872201	     93.98414300	     45.16165560	     14.25882784	     67.33772381	    123.71701937	     74.62763016
      8.41666670	     13.50020203	     -5.81051026	     -4.58678073	     -0.14240444	      0.70163222	      0.23493809	     28.41642263	     20.54109496	     -2.11356510	     81.71843184	      1.42625570	     37.97900519	    -15.39198583	     -7.49999987	     33.29323100	    -11.97399236	     -7.24505140	      0.31657061	      0.00552520	     -6.30552286	     10.78203999	     -7.49999987	    -29.44401057	      5.62699920	      1.10819459	     42.39943905	      5.87716070	     50.62795841	    119.87723425	     93.96939938	     45.29034404	     14.30003935	     67.19988353	    123.71836803	     74.63468260
      8.43333330	     13.50463421	     -5.96957776	     -4.73161216	     -0.14256161	      0.70048638	      0.23526904	     28.32958018	     20.50705659	     -2.33406597	     81.65195449	      1.42509545	     37.46162644	    -14.92583453	     -7.49999987	     33.37754202	    -12.18974206	     -7.13044521	      0.31750503	      0.00554151	     -6.50009837	     10.90853583	     -7.49999987	    -29.56199259	      5.90612966	      1.29144899	     42.58510325	      5.92248371	     50.00522436	    119.11957437	     92.20730440	     45.37902038	     14.36886847	     66.99623022	    123.90802218	     73.97931527
      8.45000000	     13.82364944	     -6.01214975	     -4.98040928	     -0.14260171	      0.70148217	      0.23555737	     27.64099083	     20.47888179	     -2.15393879	     81.36136179	      1.42002365	     37.44929282	    -14.50344471	     -7.49999987	     33.00459779	    -12.39113005	     -7.63471660	      0.32271812	      0.00563249	     -6.30927442	     11.19608476	     -7.49999987	    -29.97363090	      5.86240364	      1.36892950	     42.78299936	      5.97825454	     49.89605240	    118.65349608	     90.23924123	     45.40027672	     14.34533930	     67.10564927	    123.93391877	     73.39450401
      8.46666670	     13.73488624	     -5.98071771	     -5.10854182	     -0.14200987	      0.69968552	      0.23472617	     27.67396455	     20.34308602	     -2.14823269	     81.44357390	      1.42145852	     37.45114172	    -14.49417976	     -7.49999987	     33.26298649	    -12.40021295	     -7.64529791	      0.38627076	      0.00674170	     -5.97457908	     10.94013408	     -7.49999987	    -29.92668878	      5.79557806	      1.15857878	     42.82380484	      5.90701830	     49.75178512	    118.49188800	     90.06124075	     45.45103282	     14.41996789	     67.09451001	    123.80656346	     73.34386463
